HIERARCHY
ROOT ui
{
	 OFFSET 0 0 0
	 CHANNELS 3 XPosition YPosition Z Position
	 EndSite
	 {
	 OFFSET 0 -1 0
	 }
}
ROOT li
{
	 OFFSET 0 0 0
	 CHANNELS 3 XPosition YPosition Z Position
	 EndSite
	 {
	 OFFSET 0 -1 0
	 }
}
ROOT ul
{
	 OFFSET 0 0 0
	 CHANNELS 3 XPosition YPosition Z Position
	 EndSite
	 {
	 OFFSET 0 -1 0
	 }
}
ROOT ll
{
	 OFFSET 0 0 0
	 CHANNELS 3 XPosition YPosition Z Position
	 EndSite
	 {
	 OFFSET 0 -1 0
	 }
}
ROOT tt
{
	 OFFSET 0 0 0
	 CHANNELS 3 XPosition YPosition Z Position
	 EndSite
	 {
	 OFFSET 0 -1 0
	 }
}
ROOT tb
{
	 OFFSET 0 0 0
	 CHANNELS 3 XPosition YPosition Z Position
	 EndSite
	 {
	 OFFSET 0 -1 0
	 }
}
ROOT td
{
	 OFFSET 0 0 0
	 CHANNELS 3 XPosition YPosition Z Position
	 EndSite
	 {
	 OFFSET 0 -1 0
	 }
}
ROOT v
{
	 OFFSET 0 0 0
	 CHANNELS 3 XPosition YPosition Z Position
	 EndSite
	 {
	 OFFSET 0 -1 0
	 }
}
ROOT bn
{
	 OFFSET 0 0 0
	 CHANNELS 3 XPosition YPosition Z Position
	 EndSite
	 {
	 OFFSET 0 -1 0
	 }
}
MOTION
Frames: 27
Frame Time: 0.002
-0.002459773063659668	0.0022883780002593995	0		0.5028713684082031	-2.402076171875	0		-0.9715335693359375	-0.04949002838134765	0		-0.832295166015625	-2.343328125	0		1.2225347900390624	-0.6275911254882812	0		2.996883056640625	-0.23007557678222657	0		4.54993115234375	-0.12867218017578125	0		5.5697314453125	0.13223739624023437	0		-0.07075430297851562	6.004451171875	0		
-0.0033178420066833497	0.0022104039192199706	0		0.4790082092285156	-2.393777099609375	0		-0.980143798828125	-0.03536642456054687	0		-0.7573666381835937	-2.34770947265625	0		1.266647705078125	-0.6275493774414063	0		3.024666748046875	-0.24985696411132813	0		4.54420849609375	-0.12094907379150391	0		5.583736328125	0.12354192352294922	0		-0.07123414611816406	6.0043779296875	0		
7.444859743118286E-4	-0.001932515025138855	0		0.5008376159667969	-2.4022734375	0		-0.9891356201171875	-0.04221147918701172	0		-0.807236083984375	-2.33883740234375	0		1.259616455078125	-0.6345787963867188	0		3.02903466796875	-0.23620291137695312	0		4.52922998046875	-0.127052001953125	0		5.567365234375	0.15040080261230468	0		-0.07170262908935547	6.004328125	0		
-0.008101759910583496	-8.214840292930603E-4	0		0.49980841064453124	-2.40234033203125	0		-0.9900038452148437	-0.04217658615112305	0		-0.7743563842773438	-2.34442529296875	0		1.258707763671875	-0.634697265625	0		3.013939697265625	-0.24818846130371094	0		4.54420947265625	-0.13567982482910157	0		5.57136572265625	0.14189991760253906	0		0.06023364639282226	6.024923828125	0		
-0.004050335884094238	-0.005923326969146729	0		0.4967479248046875	-2.4043515625	0		-1.065833984375	-0.039767333984375	0		-0.8384028930664063	-2.3452470703125	0		1.25780615234375	-0.6347978515625	0		2.992212646484375	-0.24003358459472657	0		4.53234423828125	-0.1358106384277344	0		5.5621943359375	0.12364640808105469	0		-0.07259799957275391	6.00429248046875	0		
-0.0018193769454956056	-0.001972970962524414	0		0.47083187866210935	-2.398929443359375	0		-0.9798909912109375	-0.052261226654052736	0		-0.7614403686523438	-2.347595703125	0		1.2599925537109375	-0.6309368286132813	0		3.027023193359375	-0.2588895263671875	0		4.5346025390625	-0.13018162536621095	0		5.56548876953125	0.13018424987792968	0		-0.07106837463378907	6.00126708984375	0		
-4.3353301286697387E-4	0.009011210441589356	0		0.47597186279296877	-2.392051513671875	0		-1.0506241455078125	-0.04689590835571289	0		-0.7973444213867188	-2.3428828125	0		1.265259765625	-0.624115478515625	0		3.0167744140625	-0.22690841674804688	0		4.5378876953125	-0.124559326171875	0		5.56401171875	0.1478213653564453	0		-0.07241389465332031	6.00331201171875	0		
-0.0034097650051116944	-0.0019118440151214599	0		0.4958346252441406	-2.402429443359375	0		-0.9933040161132812	-0.04184080505371094	0		-0.7762590942382812	-2.34118798828125	0		1.2552384033203126	-0.635003173828125	0		3.01058056640625	-0.24899530029296876	0		4.536029296875	-0.12883338928222657	0		5.5697705078125	0.12132988739013671	0		-0.1068372573852539	5.9989775390625	0		
-0.004137732028961181	-0.0018580809831619262	0		0.46798880004882815	-2.39891796875	0		-0.9981076049804688	-0.045639862060546876	0		-0.8053019409179687	-2.348562255859375	0		1.2495745849609374	-0.6289517822265625	0		2.988984619140625	-0.24078057861328125	0		4.5352919921875	-0.12911512756347657	0		5.548421875	0.14135343933105468	0		-0.1071217041015625	5.9990390625	0		
-0.012785489082336426	-6.437749862670899E-4	0		0.4940838928222656	-2.40238232421875	0		-0.9987783813476563	-0.045499031066894534	0		-0.7800556640625	-2.343915283203125	0		1.253749267578125	-0.6350684814453125	0		3.006056884765625	-0.25426431274414063	0		4.534615234375	-0.12938423156738282	0		5.5477646484375	0.14100927734375	0		-0.07423979187011719	6.00450537109375	0		
-0.013378938674926759	-5.639569759368897E-4	0		0.43943478393554686	-2.395342529296875	0		-1.0702706298828124	-0.039035587310791015	0		-0.8418101806640625	-2.34265185546875	0		1.25923779296875	-0.6281934204101562	0		2.9929462890625	-0.22716975402832032	0		4.52612451171875	-0.12349037170410156	0		5.55782861328125	0.12148207855224609	0		-0.07341241455078125	6.0035712890625	0		
0.07511955261230469	-0.0011247650384902954	0		0.4967315063476562	-2.397360107421875	0		-0.9958095092773438	-0.041261260986328124	0		-0.76451318359375	-2.344949462890625	0		1.26176220703125	-0.6242494506835937	0		3.016975830078125	-0.251752197265625	0		4.53660888671875	-0.12392601776123047	0		5.565646484375	0.13802593994140624	0		0.057913272857666016	6.02423193359375	0		
-0.011232048988342284	0.0025709490776062013	0		0.4920730895996094	-2.40221875	0		-1.000289794921875	-0.04501900482177734	0		-0.77999853515625	-2.340519287109375	0		1.2521129150390624	-0.6350657348632812	0		3.005817626953125	-0.23765440368652344	0		4.53619677734375	-0.124133544921875	0		5.57110205078125	0.1296383819580078	0		0.05791748809814453	6.02432763671875	0		
-0.006603075981140137	-0.001412482976913452	0		0.4895867004394531	-2.404103759765625	0		-1.0005882568359374	-0.044846385955810544	0		-0.7824996337890625	-2.343322998046875	0		1.2468896484375	-0.6289448852539062	0		3.011375	-0.24484915161132811	0		4.53278173828125	-0.13025827026367187	0		5.56081689453125	0.12957716369628905	0		-0.07438045501708984	6.00490283203125	0		
-0.009860864639282227	-0.005238582134246826	0		0.43536111450195314	-2.39800537109375	0		-1.000774169921875	-0.04466925048828125	0		-0.7740137939453124	-2.353325927734375	0		1.251554931640625	-0.6349965209960937	0		2.986237548828125	-0.24144676208496094	0		4.5215927734375	-0.1302099151611328	0		5.56064111328125	0.1293570556640625	0		-0.10732557678222657	5.9986435546875	0		
0.07111388397216797	-0.00363771390914917	0		0.49109017944335936	-2.401958984375	0		-0.98495947265625	-0.05078768157958984	0		-0.8419782104492187	-2.339881103515625	0		1.2156270751953124	-0.62526904296875	0		2.999966064453125	-0.2517556304931641	0		4.51848095703125	-0.13228861999511718	0		5.5605439453125	0.12716233825683593	0		-0.07197943115234375	6.00211474609375	0		
-0.02161189651489258	0.009241680145263671	0		0.44324530029296877	-2.388951171875	0		-0.9867605590820312	-0.04256661987304688	0		-0.7661246337890625	-2.34413671875	0		1.26067333984375	-0.624052490234375	0		3.012453369140625	-0.22801736450195312	0		4.533634765625	-0.12668600463867188	0		5.570599609375	0.12680384063720704	0		-0.07160375213623046	6.00225	0		
0.06640401458740235	7.190330028533935E-4	0		0.4910522155761719	-2.401739990234375	0		-1.0006344604492188	-0.04411251449584961	0		-0.8071104736328125	-2.345183349609375	0		1.2546739501953126	-0.6308626708984375	0		2.991193115234375	-0.24963011169433594	0		4.52171826171875	-0.13054928588867187	0		5.560771484375	0.1268494415283203	0		0.05931362533569336	6.02493017578125	0		
-0.006373785018920899	-7.536410093307495E-4	0		0.46222946166992185	-2.4000673828125	0		-1.00037060546875	-0.04391937637329101	0		-0.7829021606445312	-2.34245458984375	0		1.2518349609375	-0.6347178955078125	0		3.002578125	-0.2428342742919922	0		4.52712890625	-0.1227117919921875	0		5.5510830078125	0.1289235382080078	0		-0.07154987335205078	6.00456103515625	0		
-0.00909713840484619	-0.004543276786804199	0		0.4624778747558594	-2.39993505859375	0		-1.0000203857421874	-0.043723770141601566	0		-0.8477155151367187	-2.34503271484375	0		1.25215966796875	-0.63461962890625	0		3.00778564453125	-0.24990541076660155	0		4.52232470703125	-0.1306586456298828	0		5.5572685546875	0.11972360992431641	0		-0.07093820953369141	6.00471630859375	0		
-0.005602096080780029	-4.4288501143455503E-4	0		0.46484051513671876	-2.397833984375	0		-0.9877950439453125	-0.053753089904785153	0		-0.769421630859375	-2.347326416015625	0		1.2556298828125	-0.6305690307617188	0		3.00859521484375	-0.22887001037597657	0		4.5337373046875	-0.1308886260986328	0		5.5618251953125	0.12658480072021486	0		-0.10438974761962891	5.999525390625	0		
-0.010055831909179688	0.0038150320053100587	0		0.46726242065429685	-2.395725830078125	0		-0.9950593872070312	-0.03940497589111328	0		-0.8408890991210938	-2.338763916015625	0		1.25913330078125	-0.6275081787109374	0		3.001618896484375	-0.25167581176757814	0		4.52147119140625	-0.1166407470703125	0		5.55749072265625	0.1366444091796875	0		0.061814979553222654	6.02553955078125	0		
-0.004630626201629639	-1.1136499792337417E-4	0		0.4925904541015625	-2.401048828125	0		-0.9986339111328125	-0.043128890991210936	0		-0.7706630249023437	-2.3499052734375	0		1.2565594482421876	-0.6303212890625	0		3.023377197265625	-0.23800454711914062	0		4.5347001953125	-0.13085865783691406	0		5.57764990234375	0.11826136779785157	0		-0.0689112777709961	6.005212890625	0		
-0.01208846378326416	0.00121425199508667	0		0.4910108032226562	-2.4028505859375	0		-0.9981134643554688	-0.0429299201965332	0		-0.7830862426757812	-2.343464599609375	0		1.243219970703125	-0.6219154052734375	0		2.99776318359375	-0.24441297912597656	0		4.52422021484375	-0.13059519958496094	0		5.5675400390625	0.13749383544921875	0		0.06318473052978515	6.025876953125	0		
-0.011559823036193847	0.0013909029960632324	0		0.4914869384765625	-2.40268505859375	0		-0.9957393798828125	-0.05076856994628906	0		-0.7717640380859375	-2.35148046875	0		1.254503173828125	-0.6339746704101562	0		3.005323486328125	-0.24243650817871093	0		4.53574365234375	-0.1307283172607422	0		5.55972802734375	0.11970513916015625	0		-0.10168019866943359	6.00021728515625	0		
-0.003054529905319214	4.170239865779877E-4	0		0.44013360595703127	-2.39351904296875	0		-1.0551458740234374	-0.046422306060791015	0		-0.8410748291015625	-2.33994775390625	0		1.261151123046875	-0.6269338989257812	0		3.009537841796875	-0.2583838806152344	0		4.53119189453125	-0.1345322265625	0		5.5743876953125	0.1265169906616211	0		-0.098126220703125	5.99634130859375	0		
-0.0025389211177825927	5.975949764251709E-4	0		0.4985875854492188	-2.39545703125	0		-0.9806636352539062	-0.04864720916748047	0		-0.7626238403320312	-2.342252197265625	0		1.2647344970703125	-0.622828369140625	0		3.032640625	-0.22767103576660155	0		4.53785791015625	-0.12652838134765626	0		5.5749052734375	0.1266235809326172	0		-0.06342223739624023	6.0018701171875	0		
